<?xml version="1.0" encoding="utf-8"?>
<!-- Generator: Adobe Illustrator 25.2.0, SVG Export Plug-In . SVG Version: 6.00 Build 0)  -->
<svg version="1.1" id="Layer_1" xmlns="http://www.w3.org/2000/svg" xmlns:xlink="http://www.w3.org/1999/xlink" x="0px" y="0px"
	 viewBox="0 0 270 270" style="enable-background:new 0 0 270 270;" xml:space="preserve">
<style type="text/css">
	.st0{opacity:0.3;fill:#C1C1C1;}
	.st1{fill:#F1DCC7;}
	.st2{fill:#C2A885;}
	.st3{fill:#AF9677;}
	.st4{fill:#603814;}
	.st5{fill:#AE9473;}
	.st6{fill:#E8D2BA;}
	.st7{fill:#8C705B;}
	.st8{fill:#432622;}
</style>
<g>
	<path class="st0" d="M137.9,233.9v0.2c0,3.8-3,6.8-6.7,6.8c-3.5,0-7.7,0-10.8,0c-2.3,0-4.1,1.9-4.1,4.1v0.2c0,5.3-4.3,9.6-9.6,9.6
		c-22.1,0-76,0-95.3,0c-3.8,0-6.9-3.1-6.9-7v0c0-3.8,3.1-7,7-7h10.4c2.4,0,4.3-1.9,4.3-4.3v-5.2c0-2.4-1.9-4.3-4.3-4.3h-3.7
		c-3.4,0-6.1-2.7-6.1-6.1v-0.5c0-4,3.3-7.3,7.3-7.3h0c0.8,0,1.4-0.6,1.4-1.4v-8.1c0-13.6,11-24.7,24.7-24.7h44.5
		c13.6,0,24.7,11,24.7,24.7v7.7c0,1,0.8,1.7,1.7,1.7h0c4.2,0,7.6,3.4,7.6,7.6v2c0,2.4,1.9,4.3,4.3,4.3c0.9,0,1.9,0,2.9,0
		C134.8,227,137.9,230.1,137.9,233.9z"/>
	<path class="st0" d="M132.1,70.2v0.2c0,3.8,3,6.8,6.7,6.8c3.5,0,7.7,0,10.8,0c2.3,0,4.1,1.9,4.1,4.1v0.2c0,5.3,4.3,9.6,9.6,9.6
		c22.1,0,76,0,95.3,0c3.8,0,6.9-3.1,6.9-7v0c0-3.8-3.1-7-7-7h-10.4c-2.4,0-4.3-1.9-4.3-4.3v-5.2c0-2.4,1.9-4.3,4.3-4.3h3.7
		c3.4,0,6.1-2.7,6.1-6.1v-0.5c0-4-3.3-7.3-7.3-7.3l0,0c-0.8,0-1.4-0.6-1.4-1.4v-8.1c0-13.6-11-24.7-24.7-24.7h-44.5
		c-13.6,0-24.7,11-24.7,24.7v7.7c0,1-0.8,1.7-1.7,1.7l0,0c-4.2,0-7.6,3.4-7.6,7.6v2c0,2.4-1.9,4.3-4.3,4.3c-0.9,0-1.9,0-2.9,0
		C135.2,63.2,132.1,66.3,132.1,70.2z"/>
	<g>
		<path class="st1" d="M86.6,198.9c0,0.7-1,10.2,3.3,13.6c0,0-1.1-11.4,0-14.7C90.9,194.5,86.6,198.9,86.6,198.9z"/>
		<path class="st1" d="M93.4,196.6c0,0.6-2.3,10.4,2.9,14.6c0,0-1.7-11.8,1.8-16.6C97.7,193.6,93.4,196.6,93.4,196.6z"/>
		<path class="st2" d="M71.5,164.8c0,0-2.2,20.4,5.1,30.9c2,2.9,5.4,4.7,8.9,4.8c4.5,0.1,11.1-1.1,14.1-8.1
			c0.2-0.1,3.3-19.9,3.5-28.2C103.3,162,71.5,164.8,71.5,164.8z"/>
		<path class="st1" d="M115.5,203.7c0,0-1.4,11.2,2.9,15.3c0.3,0.4-1-11.5,1.9-15.3C122.1,201.1,115.5,203.7,115.5,203.7z"/>
		<path class="st1" d="M124.7,204.5c0.1,0.8-2.4,12.5,2.6,17c0.1,0.1-0.4-12.7,2.4-17.8C130.7,202.5,124.7,204.5,124.7,204.5z"/>
		<path class="st1" d="M131.6,203.3c0,0-2.3,9.2,2.2,16.2c0.2,0.1-1.4-12.9,1.5-16.8C134.4,202.6,131.6,203.3,131.6,203.3z"/>
		<path class="st1" d="M185.9,185.5c0.5,2.2-2.1,13.9,2.9,19c0.2-0.1-0.4-12.5,1.4-18.2C191.3,182.2,185.9,185.5,185.9,185.5z"/>
		<path class="st1" d="M194.1,187.6c0,0-1.4,15,3.5,19.5c0.3,0.2-2.1-16.1,1.1-20.3C198.5,185.9,194.1,187.6,194.1,187.6z"/>
		<path class="st1" d="M202.1,187.6c0,0.5-3.2,11.8,2.8,18.3c-0.1,0.1-1.9-15.9,1.7-19.9C207.1,185.4,202.1,187.6,202.1,187.6z"/>
		<path class="st1" d="M168.4,186.5c0,0.4-1.2,12.4,3.2,15.5c0.2-0.1-1.4-11.1,1.1-17.8C173.8,182,168.4,186.5,168.4,186.5z"/>
		<path class="st1" d="M161.8,186.5c0,1.3-1.5,14.1,3.1,17.2c-0.3,0.1-1.2-11.4,1.2-17.8C165.3,182.8,161.8,186.5,161.8,186.5z"/>
		<path class="st1" d="M153.2,184.7c-0.2,0.4-1.1,13.4,3.1,16.4c0-0.1-1-11.4,1.6-15.2C156.6,183.5,153.2,184.7,153.2,184.7z"/>
		<path class="st3" d="M146.8,165.2c0,0.6-2.1,21.9,10.9,23.9c0.1-0.1,17.1,3.6,22.8-7.8c0-0.1,1.4-18.7,1.4-18.7l-27.6-3.9
			L146.8,165.2z"/>
		<path class="st4" d="M222.4,147.8h33.2c0,0,5.9,13.1-3,19.2c0.2-0.2-72.8-1.8-72.8-1.8h-41l-29.4,1.8l-99.9-1.6
			c0,0-3.9-9.6,0-13.6c0.6-0.3,19.3,2.2,19.3,2.2l-14.6-8.8l5.9-2.8l12.8,7.1h18.7L222.4,147.8z"/>
		<g>
			<path class="st2" d="M209.5,189.5c-2.9,2.8-6.8,4.2-10.8,4.2c-6.7,0-18.1-2.1-18.9-16.7c0-0.4,0-25.3,0-25.3l-0.3,0l-32,0.6
				c0,0-1.3,8.3-3.9,12.4c-0.2,0-3.4,12.4-4.9,29c-0.3,0.5-0.1,14.4-11.4,16c0,0.1-11.9,0.7-14.2-9.2c-0.1-0.7-5.5-5.5-3.5-46.6
				c-0.1-9.9,3.5-73.7,3.5-73.7s101.9-33.1,109.3,42.1C222.5,122.3,226.1,173.5,209.5,189.5z"/>
			<path class="st5" d="M115.2,79.6c0,0,23.9,11,28.1,41.9c0.1,0.4,8.5,32.5-33.7,32.5c0,0.6,2.8-71,2.8-71l0.7-2.8L115.2,79.6z"/>
			<g>
				<path class="st2" d="M56.7,152c0,0-6.9-1.3-10.2-10.5c-0.5-0.8-19.7-45.6,33.1-62.4c0.1,0.1,54.9-21,62.6,56.5
					c-0.1,0.5-49.7,16.8-49.7,16.8H65.6L56.7,152z"/>
				<g>
					<path class="st6" d="M112.3,153.7c-2.3,0.4-4.7,0.5-7.1,0.4l-39.6-1.7l-9-0.4c0,0-2.4-9-2.7-18.7c-0.4-12.9,2.9-27.2,20.6-23.1
						c0.7,0.2,1.4,0.4,2.1,0.6c0.3,0.1,0.8,0.2,1.4,0.2c1.1,0,2.4-0.4,3-2c0.4-1.2,0.9-2.4,1.5-3.5c2.7-4.4,10.1-12.5,27.2-6.9
						c4.7,1.5,9,3.8,13,6.7c0,0,0,0,0,0c3,2.1,5.8,4.6,8.3,7.4c2,2.2,4.1,4.7,5.9,7.3C145.2,132.1,147.9,147.9,112.3,153.7z"/>
					<path class="st7" d="M137.1,120.1c-7-3.7-19.4,6.8-20,6.6c-6.8,2.1-11.3,2.1-14.5,1.3c-4.3-1.1-7-5.3-6.6-9.7
						c1.4-14.8,26.1-13,26.8-12.9c0,0,0,0,0,0c3,2.1,5.8,4.6,8.3,7.4C133.2,114.9,135.2,117.4,137.1,120.1z"/>
					<path class="st7" d="M71.3,146.9c-5.4,2.3-5.7,5.5-5.7,5.5l-9-0.4c0,0-2.4-9-2.7-18.7c9.2-8.3,17.6-7.3,22.2-5.6
						c2.6,1,4.5,3.3,4.7,6.1c0.3,4.5-2.3,8-4.6,10C74.8,145.2,73.1,146.2,71.3,146.9z"/>
					<path class="st8" d="M87.9,142.8c0,0-3.6-3.5,1.2-7.2c0.1-0.2,3.1-2.2,4.4-3.1c0.8-0.5,1.7-0.9,2.6-1c1.1-0.1,2.4,0,3.6,1
						c0.6,0.5,0.9,1.1,1.1,1.9c0.2,1,0.6,2.6,0.5,4.4c-0.1,3.8-3.5,6.7-7.3,6.3C91.8,144.9,89.2,144.3,87.9,142.8z"/>
					<g>
						<path class="st8" d="M109.4,121.5c-3.1,0-6-1.8-6.1-1.9c-0.2-0.1-0.2-0.4-0.1-0.5c0.1-0.2,0.4-0.2,0.5-0.1
							c0,0,4.5,2.8,7.8,1.4c1.7-0.7,3-2.4,3.6-5.1c0-0.2,0.3-0.3,0.5-0.3c0.2,0,0.3,0.3,0.3,0.5c-0.7,2.9-2,4.8-4,5.6
							C111.1,121.4,110.2,121.5,109.4,121.5z"/>
					</g>
					<g>
						<path class="st8" d="M67,141.5c-2.4,0-4.6-0.8-4.7-0.8c-0.2-0.1-0.3-0.3-0.2-0.5c0.1-0.2,0.3-0.3,0.5-0.2
							c0.1,0,5.1,1.9,8.1-0.2c1.4-0.9,2.1-2.6,2.2-5c0-0.2,0.2-0.4,0.4-0.4c0.2,0,0.4,0.2,0.4,0.4c-0.1,2.6-0.9,4.5-2.5,5.6
							C69.9,141.3,68.4,141.5,67,141.5z"/>
					</g>
					<g>
						<path class="st8" d="M103.1,151.3c-0.1,0-0.1,0-0.2-0.1c-0.2-0.1-0.2-0.4-0.1-0.5c0.1-0.2,0.3-0.2,0.9-0.2
							c2.1-0.1,8.5-0.4,9.7-8.9c0-0.2,0.2-0.4,0.4-0.3c0.2,0,0.4,0.2,0.3,0.4c-0.9,6.1-4.4,9.3-10.4,9.6c-0.2,0-0.3,0-0.4,0
							C103.3,151.2,103.2,151.3,103.1,151.3z"/>
					</g>
				</g>
			</g>
		</g>
		<path class="st1" d="M77.4,196.7c0,0-1,10.4,3.5,14c-0.5-0.2-1-8.1,0.7-10.9C81.9,199.9,77.4,196.7,77.4,196.7z"/>
		<path class="st5" d="M179.7,151.8l-0.9,0c-0.1-1.4-0.5-5.9-1.3-7.9C178.2,145.3,179.7,148.7,179.7,151.8z"/>
	</g>
</g>
</svg>
