<?xml version="1.0" encoding="utf-8"?>
<!-- Generator: Adobe Illustrator 25.2.0, SVG Export Plug-In . SVG Version: 6.00 Build 0)  -->
<svg version="1.1" id="Layer_1" xmlns="http://www.w3.org/2000/svg" xmlns:xlink="http://www.w3.org/1999/xlink" x="0px" y="0px"
	 viewBox="0 0 80 80" style="enable-background:new 0 0 80 80;" xml:space="preserve">
<style type="text/css">
	.st0{fill:#22262A;}
</style>
<path class="st0" d="M73.8,15.3H21.5l-1.1-5.7c-0.2-1.4-1.5-2.6-3-2.6H4.6C3.7,7.1,3,7.9,3,8.6v3.1c0,0.9,0.6,1.5,1.5,1.5h10.3
	L23.7,59c-1.4,1.5-2.2,3.5-2.2,5.7c0,4.6,3.6,8.2,8.2,8.2c4.5,0,8.2-3.6,8.2-8.2c0-1.2-0.5-3-1.2-4.1h18.6c-0.6,1.2-1,3-1,4.1
	c0,4.6,3.6,8.2,8.2,8.2c4.5,0,8.2-3.6,8.2-8.2c0-2.3-1-4.4-2.6-5.9l0.1-0.5c0.4-1.9-1-3.9-3.1-3.9H29.1l-1.2-6.2h40.1
	c1.5,0,2.7-0.9,3.1-2.3l5.8-26.7C77.3,17.2,75.9,15.3,73.8,15.3z M62.7,61.6c1.7,0,3.1,1.4,3.1,3.1c0,1.8-1.4,3.1-3.1,3.1
	c-1.8,0-3.1-1.3-3.1-3.1C59.6,63,60.9,61.6,62.7,61.6z M29.8,61.6c1.7,0,3.1,1.4,3.1,3.1c0,1.8-1.4,3.1-3.1,3.1
	c-1.8,0-3.1-1.3-3.1-3.1C26.7,63,27.9,61.6,29.8,61.6z M65.6,42.1h-39l-4-20.6h47.4L65.6,42.1z"/>
</svg>
