<?xml version="1.0" encoding="utf-8"?>
<!-- Generator: Adobe Illustrator 25.2.0, SVG Export Plug-In . SVG Version: 6.00 Build 0)  -->
<svg version="1.1" id="Layer_1" xmlns="http://www.w3.org/2000/svg" xmlns:xlink="http://www.w3.org/1999/xlink" x="0px" y="0px"
	 viewBox="0 0 80 80" style="enable-background:new 0 0 80 80;" xml:space="preserve">
<style type="text/css">
	.st0{fill:#070707;}
</style>
<g>
	<path class="st0" d="M30,12.3c-4.7,8.5-5.2,18.8-1.2,27.9c4.3,9.8,13,16.7,23.4,18.5c1.8,0.3,3.7,0.5,5.5,0.5
		c2.3,0,4.5-0.2,6.7-0.7c-4.7,6.1-11.2,9.6-19.6,10.9l-0.2,0l-0.2,0c-0.9,0.2-1.9,0.2-3.2,0.2c-15.3,0-28.1-11.5-29.7-26.6
		C10.3,29.4,18,17.1,30,12.3 M37.2,5.5c-0.1,0-0.2,0-0.4,0c-0.1,0-0.4,0-0.5,0C17.9,8.1,4.8,24.8,6.7,43.4
		C8.6,61,23.5,74.5,41.4,74.5c1.4,0,2.8,0,4.2-0.3c12.9-1.9,22-8.7,27.5-20.5c0.3-0.5,0.4-0.9,0.3-1.4c-0.2-1-0.9-1.6-1.9-1.6
		c-0.4,0-0.9,0.1-1.4,0.4c-4,2-8.1,3-12.4,3c-1.5,0-3.1-0.1-4.6-0.4c-18.4-3.2-28-24.5-17.9-40.3c1-1.7,2.2-3.1,3.5-4.4
		c0.8-0.8,0.9-1.6,0.5-2.5C38.8,5.9,38.2,5.5,37.2,5.5L37.2,5.5z"/>
</g>
</svg>
