<?xml version="1.0" encoding="utf-8"?>
<!-- Generator: Adobe Illustrator 25.2.0, SVG Export Plug-In . SVG Version: 6.00 Build 0)  -->
<svg version="1.1" id="Layer_1" xmlns="http://www.w3.org/2000/svg" xmlns:xlink="http://www.w3.org/1999/xlink" x="0px" y="0px"
	 viewBox="0 0 80 80" style="enable-background:new 0 0 80 80;" xml:space="preserve">
<style type="text/css">
	.st0{fill:#22262A;}
</style>
<path class="st0" d="M302.7-70.4c-1.8,0-3.1,1.4-3.1,3.1c0,1.8,1.3,3.1,3.1,3.1c1.7,0,3.1-1.3,3.1-3.1
	C305.8-69,304.3-70.4,302.7-70.4z M335.6-70.4c-1.8,0-3.1,1.4-3.1,3.1c0,1.8,1.3,3.1,3.1,3.1c1.7,0,3.1-1.3,3.1-3.1
	C338.7-69,337.3-70.4,335.6-70.4z M335.6-70.4c-1.8,0-3.1,1.4-3.1,3.1c0,1.8,1.3,3.1,3.1,3.1c1.7,0,3.1-1.3,3.1-3.1
	C338.7-69,337.3-70.4,335.6-70.4z M302.7-70.4c-1.8,0-3.1,1.4-3.1,3.1c0,1.8,1.3,3.1,3.1,3.1c1.7,0,3.1-1.3,3.1-3.1
	C305.8-69,304.3-70.4,302.7-70.4z M335.6-70.4c-1.8,0-3.1,1.4-3.1,3.1c0,1.8,1.3,3.1,3.1,3.1c1.7,0,3.1-1.3,3.1-3.1
	C338.7-69,337.3-70.4,335.6-70.4z M302.7-70.4c-1.8,0-3.1,1.4-3.1,3.1c0,1.8,1.3,3.1,3.1,3.1c1.7,0,3.1-1.3,3.1-3.1
	C305.8-69,304.3-70.4,302.7-70.4z M302.7-70.4c-1.8,0-3.1,1.4-3.1,3.1c0,1.8,1.3,3.1,3.1,3.1c1.7,0,3.1-1.3,3.1-3.1
	C305.8-69,304.3-70.4,302.7-70.4z M335.6-70.4c-1.8,0-3.1,1.4-3.1,3.1c0,1.8,1.3,3.1,3.1,3.1c1.7,0,3.1-1.3,3.1-3.1
	C338.7-69,337.3-70.4,335.6-70.4z M335.6-70.4c-1.8,0-3.1,1.4-3.1,3.1c0,1.8,1.3,3.1,3.1,3.1c1.7,0,3.1-1.3,3.1-3.1
	C338.7-69,337.3-70.4,335.6-70.4z M302.7-70.4c-1.8,0-3.1,1.4-3.1,3.1c0,1.8,1.3,3.1,3.1,3.1c1.7,0,3.1-1.3,3.1-3.1
	C305.8-69,304.3-70.4,302.7-70.4z"/>
<path class="st0" d="M346.8-116.7h-52.3l-1.2-5.7c-0.2-1.4-1.5-2.6-3-2.6h-12.9c-0.9,0-1.5,0.8-1.5,1.5v3.1c0,0.9,0.6,1.5,1.5,1.5
	h10.3l8.9,45.8c-1.4,1.5-2.2,3.5-2.2,5.7c0,4.6,3.6,8.2,8.2,8.2c4.5,0,8.2-3.6,8.2-8.2c0-1.2-0.5-3-1.2-4.1h18.6c-0.6,1.2-1,3-1,4.1
	c0,4.6,3.6,8.2,8.2,8.2c4.5,0,8.2-3.6,8.2-8.2c0-2.3-1-4.4-2.6-5.9l0.1-0.5c0.4-1.9-1-3.9-3.1-3.9H302l-1.2-6.2H341
	c1.5,0,2.7-0.9,3.1-2.3l5.8-26.7C350.2-114.8,348.8-116.7,346.8-116.7z M335.6-70.4c1.7,0,3.1,1.4,3.1,3.1c0,1.8-1.4,3.1-3.1,3.1
	c-1.8,0-3.1-1.3-3.1-3.1C332.5-69,333.8-70.4,335.6-70.4z M302.7-70.4c1.7,0,3.1,1.4,3.1,3.1c0,1.8-1.4,3.1-3.1,3.1
	c-1.8,0-3.1-1.3-3.1-3.1C299.6-69,300.9-70.4,302.7-70.4z M338.5-90h-39l-4-20.6H343L338.5-90z"/>
<path class="st0" d="M66,15.4c-7.5-6.3-18.9-5.4-26,1.9C32.9,10,21.4,9.1,14,15.4c-9.6,8.1-8.2,21.3-1.3,28.4l22.5,23
	c1.3,1.3,3,2.1,4.9,2.1c1.8,0,3.5-0.8,4.7-2.1l22.6-23C74.2,36.7,75.7,23.5,66,15.4z M62.9,39.4l-22.5,23c-0.2,0.3-0.5,0.3-0.9,0
	L17,39.4c-4.7-4.7-5.7-13.8,0.9-19.3c5-4.2,12.7-3.6,17.6,1.3l4.5,4.6l4.5-4.6C49.3,16.5,57,15.9,62,20
	C68.6,25.6,67.7,34.7,62.9,39.4z"/>
</svg>
