<?xml version="1.0" encoding="utf-8"?>
<!-- Generator: Adobe Illustrator 25.2.0, SVG Export Plug-In . SVG Version: 6.00 Build 0)  -->
<svg version="1.1" id="Layer_1" xmlns="http://www.w3.org/2000/svg" xmlns:xlink="http://www.w3.org/1999/xlink" x="0px" y="0px"
	 viewBox="0 0 80 80" style="enable-background:new 0 0 80 80;" xml:space="preserve">
<style type="text/css">
	.st0{fill:#22262A;}
</style>
<path class="st0" d="M-746.2,240.6c-6.8,0-12.2,5.6-12.2,12.2c0,6.8,5.4,12.2,12.2,12.2c6.7,0,12.2-5.4,12.2-12.2
	C-733.9,246.1-739.5,240.6-746.2,240.6z M-746.2,258.4c-3.2,0-5.6-2.4-5.6-5.6c0-3.1,2.4-5.6,5.6-5.6c3.1,0,5.6,2.5,5.6,5.6
	C-740.6,256-743.1,258.4-746.2,258.4z M-712.8,249.5h-7c-1.5-12-11.1-21.6-23.1-23.1v-7c0-1.1-1.1-2.2-2.2-2.2h-2.2
	c-1.3,0-2.2,1.1-2.2,2.2v7c-12.1,1.5-21.7,11.1-23.2,23.1h-6.8c-1.3,0-2.2,1.1-2.2,2.2v2.2c0,1.3,1,2.2,2.2,2.2h6.8
	c1.5,12.1,11.1,21.7,23.2,23.2v6.8c0,1.3,1,2.2,2.2,2.2h2.2c1.1,0,2.2-1,2.2-2.2v-6.8c12-1.5,21.6-11.1,23.1-23.2h7
	c1.1,0,2.2-1,2.2-2.2v-2.2C-710.6,250.6-711.7,249.5-712.8,249.5z M-746.2,272.9c-11.1,0-20-8.9-20-20c0-11,8.9-20,20-20
	c11,0,20,9,20,20C-726.2,263.9-735.2,272.9-746.2,272.9z"/>
<path class="st0" d="M-500.5,296.9l-13.7-13.7c-0.3-0.2-0.7-0.5-1-0.5h-1.5c3.5-4.1,5.8-9.5,5.8-15.4c0-12.9-10.6-23.5-23.5-23.5
	c-13,0-23.5,10.6-23.5,23.5c0,13,10.5,23.5,23.5,23.5c5.9,0,11.2-2.2,15.4-5.7v1.5c0,0.3,0.1,0.7,0.3,1l13.7,13.7
	c0.6,0.6,1.5,0.6,1.9,0l2.6-2.6C-500,298.4-500,297.5-500.5,296.9z M-534.5,285.5c-10.1,0-18.1-8-18.1-18.1c0-10,8-18.1,18.1-18.1
	c10,0,18.1,8.1,18.1,18.1C-516.4,277.5-524.5,285.5-534.5,285.5z M-289.8,251.2c-6.6-5.5-16.6-4.8-22.9,1.7
	c-6.3-6.5-16.4-7.2-23-1.7c-8.5,7.1-7.2,18.8-1.1,25l19.8,20.3c1.1,1.1,2.6,1.8,4.3,1.8c1.6,0,3.1-0.7,4.2-1.8l19.9-20.3
	C-282.5,270-281.3,258.3-289.8,251.2z M-292.5,272.4l-19.8,20.3c-0.2,0.2-0.5,0.2-0.8,0l-19.8-20.3c-4.2-4.2-5-12.1,0.8-17
	c4.4-3.7,11.2-3.2,15.5,1.1l4,4.1l4-4.1c4.2-4.3,11-4.9,15.4-1.2C-287.5,260.2-288.3,268.2-292.5,272.4z M-85.4,251.1h-46.1l-1-5
	c-0.2-1.2-1.4-2.3-2.6-2.3h-11.3c-0.8,0-1.4,0.7-1.4,1.4v2.7c0,0.8,0.6,1.4,1.4,1.4h9.1l7.8,40.3c-1.2,1.4-1.9,3.1-1.9,5
	c0,4.1,3.2,7.2,7.2,7.2c4,0,7.2-3.2,7.2-7.2c0-1-0.5-2.6-1-3.6h16.4c-0.6,1-0.9,2.6-0.9,3.6c0,4.1,3.2,7.2,7.2,7.2
	c4,0,7.2-3.2,7.2-7.2c0-2-0.9-3.8-2.3-5.2l0.1-0.5c0.3-1.7-0.9-3.4-2.7-3.4h-31.9l-1-5.4h35.3c1.4,0,2.4-0.8,2.7-2l5.1-23.5
	C-82.4,252.8-83.6,251.1-85.4,251.1z M-124.3,297.3c-1.6,0-2.7-1.1-2.7-2.7c0-1.5,1.1-2.7,2.7-2.7c1.5,0,2.7,1.2,2.7,2.7
	C-121.6,296.1-122.8,297.3-124.3,297.3z M-95.3,297.3c-1.6,0-2.7-1.1-2.7-2.7c0-1.5,1.1-2.7,2.7-2.7c1.5,0,2.7,1.2,2.7,2.7
	C-92.6,296.1-93.8,297.3-95.3,297.3z M-92.7,274.6H-127l-3.5-18.1h41.8L-92.7,274.6z"/>
<path d="M70.4,4.5h-61c-2.7,0-4.9,2.4-4.9,5.2v60.7c0,2.8,2.2,5.1,4.9,5.1h61c2.7,0,5.1-2.2,5.1-5.1V9.7C75.5,6.9,73.1,4.5,70.4,4.5
	z M25.9,65.4H15.4V31.6h10.5V65.4z M20.7,26.8c-3.5,0-6.2-2.7-6.2-6s2.7-6.2,6.2-6.2c3.3,0,6,2.9,6,6.2S24,26.8,20.7,26.8z
	 M65.4,65.4H54.7V48.9c0-3.8,0-8.9-5.4-8.9c-5.5,0-6.3,4.3-6.3,8.7v16.6H32.5V31.6h10v4.6h0.1c1.4-2.7,4.9-5.5,10-5.5
	c10.6,0,12.7,7.1,12.7,16.2V65.4z"/>
</svg>
