<?xml version="1.0" encoding="utf-8"?>
<!-- Generator: Adobe Illustrator 25.2.0, SVG Export Plug-In . SVG Version: 6.00 Build 0)  -->
<svg version="1.1" id="Layer_1" xmlns="http://www.w3.org/2000/svg" xmlns:xlink="http://www.w3.org/1999/xlink" x="0px" y="0px"
	 viewBox="0 0 300 80" style="enable-background:new 0 0 300 80;" xml:space="preserve">
<style type="text/css">
	.st0{fill:#22262A;}
</style>
<g>
	<g>
		<g>
			<path class="st0" d="M107.3,22c0,0,0,0.1,0,0.2C107.3,22.1,107.3,22,107.3,22L107.3,22z"/>
		</g>
	</g>
	<g>
		<path class="st0" d="M165.3,41h-43.2v-5.8c6.6-0.7,11.8-6.4,11.8-13.2c0-8.8-8.5-15.6-17.7-12.6c-5.4,1.8-9,6.9-9,12.6v0
			c0,0.1,0,0.2,0,0.2c0,0.1,0,0.2,0.1,0.2c0.2,0.6,0.8,1,1.4,1c0.4,0,0.8-0.2,1.1-0.5c0.2-0.3,0.4-0.6,0.4-1v0
			c0-6.3,5.7-11.3,12.3-10.1c4.1,0.7,7.5,4,8.2,8.2c1.2,6.6-3.8,12.3-10.1,12.3h-0.1c-0.8,0-1.4,0.6-1.4,1.4V41H78.8
			c-8.2,0-15.3,6.3-15.7,14.5c-0.4,8.8,6.6,16,15.2,16h87.3c8.7,0,15.6-7.2,15.2-16C180.6,47.3,173.5,41,165.3,41z M165.4,68.4h-87
			c-7.1,0-12.9-6.1-12.2-13.4C66.8,48.7,72.4,44,78.7,44h87c7.1,0,12.9,6.2,12.2,13.4C177.3,63.7,171.7,68.4,165.4,68.4z"/>
	</g>
	<g>
		<path class="st0" d="M29.2,43.3c2,1,3.6,2.5,4.7,4.3l-2.5,1.6c-1-1.4-2.2-2.6-3.8-3.4c-1.6-0.8-3.3-1.2-5.2-1.2
			c-2.1,0-4.1,0.5-5.8,1.5c-1.7,1-3.1,2.3-4.1,4.1c-1,1.8-1.5,3.8-1.5,6.1c0,2.3,0.5,4.3,1.5,6.1c1,1.8,2.4,3.1,4.1,4.1
			c1.7,1,3.7,1.5,5.8,1.5c1.9,0,3.6-0.4,5.2-1.2c1.6-0.8,2.9-2,3.8-3.4l2.4,1.7c-1.2,1.8-2.8,3.2-4.8,4.2c-2,1-4.2,1.5-6.6,1.5
			c-2.7,0-5.2-0.6-7.4-1.9c-2.2-1.2-3.9-2.9-5.2-5.1C8.6,61.4,8,59,8,56.2c0-2.8,0.6-5.2,1.9-7.4c1.2-2.2,3-3.9,5.2-5.1
			c2.2-1.2,4.7-1.9,7.4-1.9C24.9,41.8,27.2,42.3,29.2,43.3z"/>
		<path class="st0" d="M40.3,70.3V42.1h2.9v25.4h16.4v2.7H40.3z"/>
	</g>
	<g>
		<path class="st0" d="M198.2,44.9v25.4h-2.9V44.9h-9.9v-2.7h22.8v2.7H198.2z"/>
		<path class="st0" d="M233.4,54.7V42.1h2.9v28.2h-2.9V57.4h-17.5v12.8H213V42.1h2.9v12.6H233.4z"/>
		<path class="st0" d="M244.5,70.3V42.1h19.5v2.7h-16.5v9.9h16v2.7h-16v10.1h16.7v2.7H244.5z"/>
		<path class="st0" d="M281.1,44.5c-2.2,0-4,0.5-5.4,1.4c-1.4,1-2.1,2.2-2.1,3.9c0,1.3,0.5,2.4,1.6,3.2c1.1,0.8,2.8,1.3,5.1,1.6
			l2.9,0.4c5.8,0.7,8.7,3.1,8.7,7.3c0,1.8-0.5,3.3-1.5,4.6c-1,1.3-2.3,2.2-4,2.9c-1.7,0.6-3.6,1-5.6,1c-2.1,0-4.1-0.3-6.1-1
			s-3.6-1.5-5-2.6l1.5-2.3c1.1,0.9,2.5,1.6,4.2,2.2c1.7,0.6,3.4,0.9,5.2,0.9c2.4,0,4.3-0.5,5.9-1.4c1.5-0.9,2.3-2.2,2.3-4
			c0-1.4-0.6-2.5-1.7-3.3s-2.9-1.3-5.2-1.5l-3-0.4c-2.6-0.3-4.7-1.1-6.1-2.3c-1.4-1.2-2.2-2.9-2.2-5c0-1.7,0.5-3.2,1.4-4.4
			c0.9-1.2,2.2-2.2,3.8-2.8c1.6-0.7,3.4-1,5.3-1c3.7,0,7.1,1,10.1,3.1l-1.5,2.4C287.3,45.4,284.4,44.5,281.1,44.5z"/>
	</g>
</g>
</svg>
