<?xml version="1.0" encoding="utf-8"?>
<!-- Generator: Adobe Illustrator 25.2.0, SVG Export Plug-In . SVG Version: 6.00 Build 0)  -->
<svg version="1.1" id="Layer_1" xmlns="http://www.w3.org/2000/svg" xmlns:xlink="http://www.w3.org/1999/xlink" x="0px" y="0px"
	 viewBox="0 0 80 80" style="enable-background:new 0 0 80 80;" xml:space="preserve">
<style type="text/css">
	.st0{fill:#22262A;}
</style>
<path class="st0" d="M40,27.8c-6.8,0-12.2,5.6-12.2,12.2c0,6.8,5.4,12.2,12.2,12.2c6.7,0,12.2-5.4,12.2-12.2
	C52.2,33.3,46.7,27.8,40,27.8z M40,45.6c-3.2,0-5.6-2.4-5.6-5.6c0-3.1,2.4-5.6,5.6-5.6c3.1,0,5.6,2.5,5.6,5.6
	C45.6,43.2,43.1,45.6,40,45.6z M73.4,36.7h-7c-1.5-12-11.1-21.6-23.1-23.1v-7c0-1.1-1.1-2.2-2.2-2.2h-2.2c-1.3,0-2.2,1.1-2.2,2.2v7
	C24.6,15.1,15,24.7,13.4,36.7H6.6c-1.3,0-2.2,1.1-2.2,2.2v2.2c0,1.3,1,2.2,2.2,2.2h6.8C15,55.4,24.6,65,36.7,66.6v6.8
	c0,1.3,1,2.2,2.2,2.2h2.2c1.1,0,2.2-1,2.2-2.2v-6.8c12-1.5,21.6-11.1,23.1-23.2h7c1.1,0,2.2-1,2.2-2.2v-2.2
	C75.6,37.8,74.5,36.7,73.4,36.7z M40,60c-11.1,0-20-8.9-20-20c0-11,8.9-20,20-20c11,0,20,9,20,20C60,51.1,51,60,40,60z"/>
<path class="st0" d="M183.3-167.7l-13.7-13.7c-0.3-0.2-0.7-0.5-1-0.5h-1.5c3.5-4.1,5.8-9.5,5.8-15.4c0-12.9-10.6-23.5-23.5-23.5
	c-13,0-23.5,10.6-23.5,23.5c0,13,10.5,23.5,23.5,23.5c5.9,0,11.2-2.2,15.4-5.7v1.5c0,0.3,0.1,0.7,0.3,1l13.7,13.7
	c0.6,0.6,1.5,0.6,1.9,0l2.6-2.6C183.9-166.3,183.9-167.2,183.3-167.7z M149.3-179.2c-10.1,0-18.1-8-18.1-18.1c0-10,8-18.1,18.1-18.1
	c10,0,18.1,8.1,18.1,18.1C167.4-187.2,159.3-179.2,149.3-179.2z M394.1-213.5c-6.6-5.5-16.6-4.8-22.9,1.7c-6.3-6.5-16.4-7.2-23-1.7
	c-8.5,7.1-7.2,18.8-1.1,25l19.8,20.3c1.1,1.1,2.6,1.8,4.3,1.8c1.6,0,3.1-0.7,4.2-1.8l19.9-20.3C401.3-194.7,402.5-206.3,394.1-213.5
	z M391.3-192.3L371.5-172c-0.2,0.2-0.5,0.2-0.8,0l-19.8-20.3c-4.2-4.2-5-12.1,0.8-17c4.4-3.7,11.2-3.2,15.5,1.1l4,4.1l4-4.1
	c4.2-4.3,11-4.9,15.4-1.2C396.3-204.4,395.5-196.5,391.3-192.3z M598.4-213.6h-46.1l-1-5c-0.2-1.2-1.4-2.3-2.6-2.3h-11.3
	c-0.8,0-1.4,0.7-1.4,1.4v2.7c0,0.8,0.6,1.4,1.4,1.4h9.1l7.8,40.3c-1.2,1.4-1.9,3.1-1.9,5c0,4.1,3.2,7.2,7.2,7.2c4,0,7.2-3.2,7.2-7.2
	c0-1-0.5-2.6-1-3.6h16.4c-0.6,1-0.9,2.6-0.9,3.6c0,4.1,3.2,7.2,7.2,7.2c4,0,7.2-3.2,7.2-7.2c0-2-0.9-3.8-2.3-5.2l0.1-0.5
	c0.3-1.7-0.9-3.4-2.7-3.4H559l-1-5.4h35.3c1.4,0,2.4-0.8,2.7-2l5.1-23.5C601.4-211.9,600.2-213.6,598.4-213.6z M559.5-167.4
	c-1.6,0-2.7-1.1-2.7-2.7c0-1.5,1.1-2.7,2.7-2.7c1.5,0,2.7,1.2,2.7,2.7C562.3-168.5,561-167.4,559.5-167.4z M588.5-167.4
	c-1.6,0-2.7-1.1-2.7-2.7c0-1.5,1.1-2.7,2.7-2.7c1.5,0,2.7,1.2,2.7,2.7C591.2-168.5,590-167.4,588.5-167.4z M591.1-190h-34.3
	l-3.5-18.1h41.8L591.1-190z"/>
</svg>
